<?xml version="1.0" encoding="UTF-8" standalone="no"?>
<!-- Created with Inkscape (http://www.inkscape.org/) -->

<svg
   width="20.697001mm"
   height="15.210135mm"
   viewBox="0 0 20.697 15.210135"
   version="1.1"
   id="svg1"
   inkscape:version="1.4 (e7c3feb100, 2024-10-09)"
   sodipodi:docname="favicon.svg"
   inkscape:export-filename="favicon.png"
   inkscape:export-xdpi="284.71759"
   inkscape:export-ydpi="284.71759"
   xmlns:inkscape="http://www.inkscape.org/namespaces/inkscape"
   xmlns:sodipodi="http://sodipodi.sourceforge.net/DTD/sodipodi-0.dtd"
   xmlns="http://www.w3.org/2000/svg"
   xmlns:svg="http://www.w3.org/2000/svg">
  <sodipodi:namedview
     id="namedview1"
     pagecolor="#ffffff"
     bordercolor="#000000"
     borderopacity="0.25"
     inkscape:showpageshadow="2"
     inkscape:pageopacity="0.0"
     inkscape:pagecheckerboard="0"
     inkscape:deskcolor="#d1d1d1"
     inkscape:document-units="mm"
     inkscape:zoom="4.192802"
     inkscape:cx="19.199571"
     inkscape:cy="35.537095"
     inkscape:window-width="1920"
     inkscape:window-height="1043"
     inkscape:window-x="0"
     inkscape:window-y="0"
     inkscape:window-maximized="1"
     inkscape:current-layer="layer1" />
  <defs
     id="defs1" />
  <g
     inkscape:label="Layer 1"
     inkscape:groupmode="layer"
     id="layer1"
     transform="translate(-162.45416,-90.222916)">
    <g
       id="g10"
       transform="translate(59.672942,33.99945)">
      <path
         id="rect9"
         style="fill:#ffcc00;stroke:#000000;stroke-width:0.7;stroke-linecap:round;stroke-linejoin:round;stroke-dasharray:none"
         d="m 109.136,56.573451 7.41792,5.464224 c 0,0 -7.21986,8.752952 -8.29022,9.019926 -1.07036,0.266974 -5.19726,-2.255302 -5.13157,-3.780044 0.0567,-1.316083 6.00387,-10.704106 6.00387,-10.704106 z"
         sodipodi:nodetypes="cczsc" />
      <path
         style="fill:#000000;stroke:#000000;stroke-width:0.7;stroke-linecap:round;stroke-linejoin:round;stroke-dasharray:none"
         d="m 109.136,56.573451 7.41792,5.464223 c 0,0 -6.74997,0.71888 -7.41792,-5.464223 z"
         id="path9"
         sodipodi:nodetypes="ccc" />
      <path
         style="fill:#d40000;stroke:#000000;stroke-width:0.77205;stroke-linecap:round;stroke-linejoin:round;stroke-dasharray:none"
         d="m 114.41196,61.558717 c 0.48207,-0.178689 1.02083,-0.300161 1.54113,-0.337894 0.0834,-0.0061 0.1675,0.0061 0.25088,0 0.5949,-0.04315 1.11253,-0.06706 1.68449,0.135158 0.33739,0.119283 0.66971,0.274342 1.00352,0.40547 0.14337,0.05632 0.27941,0.133437 0.43009,0.168949 0.0821,0.01932 0.16828,0.0171 0.25087,0.03378 0.47567,0.0961 0.0363,0.03388 0.46593,0.135158 0.1995,0.04703 0.44012,0.0865 0.64513,0.101371 0.4041,0.02932 0.80127,0.05276 1.18272,-0.101371 0.27681,-0.111845 0.72971,-0.610904 0.82433,-0.878522 0.0193,-0.05449 0.0167,-0.114463 0.0357,-0.168947 0.0532,-0.150402 0.15594,-0.29065 0.21505,-0.439262 0.22095,-0.555522 0.16976,-1.230704 0,-1.790834 -0.0707,-0.233451 -0.16311,-0.42032 -0.32255,-0.608208 -0.0651,-0.0395 -0.0657,-0.116407 -0.10758,-0.168948 -0.0604,-0.07591 -0.13908,-0.115246 -0.21504,-0.168945 -0.33279,-0.235318 -0.65672,-0.270317 -1.0752,-0.270317 -0.17093,0 -0.36935,-0.02643 -0.5376,0 -0.32801,0.05153 -0.63435,0.231033 -0.96769,0.270317 -0.28558,0.03365 -0.56971,0.03378 -0.86017,0.03378 -0.26015,0 -0.4794,-0.186383 -0.7168,-0.270312 -0.21079,-0.07452 -0.076,0.007 -0.28673,-0.06758 -0.14605,-0.05162 -0.43523,-0.203951 -0.57344,-0.236524 -0.27449,-0.0647 -0.67727,-0.113212 -0.96769,-0.06758 -0.18489,0.02906 -0.33526,0.09046 -0.50176,0.168948 -0.0676,0.03186 -0.14746,0.03572 -0.21504,0.06758 -0.26041,0.12275 0.0207,0.0094 -0.1792,0.135158 -0.11917,0.0749 -0.27047,0.169836 -0.39423,0.236525 -0.0328,0.01767 -0.0761,0.01403 -0.10758,0.03378 -0.0843,0.05302 -0.13255,0.147187 -0.21504,0.202737 -0.0435,0.02927 -0.0998,0.03831 -0.14336,0.06758 -0.12722,0.08568 -0.2393,0.207847 -0.35841,0.304106 -0.26906,0.217421 -0.58226,0.426528 -0.896,0.574416 -0.21998,0.103696 -0.47643,0.164966 -0.7168,0.202736 -0.0892,0.01402 -0.31318,0.0084 -0.39426,0.03378 -0.0598,0.01882 -0.2275,0.136631 -0.25086,0.202739 -0.0114,0.03205 0.0114,0.06931 0,0.101361 -0.007,0.02063 -0.0643,0.08075 -0.0717,0.101372 -0.0114,0.03205 0.0114,0.06931 0,0.101372 -0.0254,0.07194 -0.0462,0.130796 -0.0717,0.202738 -0.0169,0.04794 0.0237,0.124125 0,0.168946 -0.0443,0.0835 -0.0357,-0.01167 -0.0357,0.06757"
         id="path10" />
    </g>
  </g>
</svg>
